<svg width="20" height="20" viewBox="0 0 20 20" fill="none" xmlns="http://www.w3.org/2000/svg">
<path d="M10 0C15.5228 0 20 4.47715 20 10C20 15.5228 15.5228 20 10 20C4.47715 20 0 15.5228 0 10C0 4.47715 4.47715 0 10 0ZM10 2C5.58172 2 2 5.58172 2 10C2 14.4183 5.58172 18 10 18C14.4183 18 18 14.4183 18 10C18 5.58172 14.4183 2 10 2ZM13.8329 5.33748C14.0697 5.17128 14.3916 5.19926 14.5962 5.40381C14.8002 5.60784 14.8267 5.92955 14.6587 6.16418C12.479 9.2095 11.2796 10.8417 11.0607 11.0607C10.4749 11.6464 9.5251 11.6464 8.9393 11.0607C8.3536 10.4749 8.3536 9.5251 8.9393 8.9393C9.3126 8.5661 10.9438 7.36549 13.8329 5.33748ZM15.5 9C16.0523 9 16.5 9.4477 16.5 10C16.5 10.5523 16.0523 11 15.5 11C14.9477 11 14.5 10.5523 14.5 10C14.5 9.4477 14.9477 9 15.5 9ZM4.5 9C5.05228 9 5.5 9.4477 5.5 10C5.5 10.5523 5.05228 11 4.5 11C3.94772 11 3.5 10.5523 3.5 10C3.5 9.4477 3.94772 9 4.5 9ZM6.81802 5.40381C7.20854 5.79433 7.20854 6.4275 6.81802 6.81802C6.4275 7.20854 5.79433 7.20854 5.40381 6.81802C5.01328 6.4275 5.01328 5.79433 5.40381 5.40381C5.79433 5.01328 6.4275 5.01328 6.81802 5.40381ZM10 3.5C10.5523 3.5 11 3.94772 11 4.5C11 5.05228 10.5523 5.5 10 5.5C9.4477 5.5 9 5.05228 9 4.5C9 3.94772 9.4477 3.5 10 3.5Z" fill="#6F767E"/>
</svg>
