<svg width="20" height="20" viewBox="0 0 20 20" fill="none" xmlns="http://www.w3.org/2000/svg">
<path fill-rule="evenodd" clip-rule="evenodd" d="M6.83788 5.33541C6.81082 5.31638 6.76979 5.30633 6.72791 5.31646C4.20685 5.92448 1.86976 8.69541 1.86976 11.662C1.86976 15.2553 4.84425 18.1687 8.5143 18.1687C11.8371 18.1687 14.5819 15.833 15.0773 12.6904C15.0774 12.6897 15.0775 12.6888 15.0776 12.6884C15.0763 12.6859 15.0731 12.6811 15.0668 12.6746C15.0433 12.6506 14.9969 12.6258 14.9374 12.6258C13.8652 12.6258 12.9999 12.6448 12.2892 12.664C12.1338 12.6682 11.9845 12.6724 11.8411 12.6765C11.337 12.6908 10.9067 12.7031 10.5459 12.7034C9.62464 12.7041 8.89799 12.6372 8.21854 12.1442C7.52352 11.6398 7.20423 10.9364 7.04245 9.91464C6.88732 8.93488 6.85218 7.49936 6.85218 5.3499M6.83788 5.33541C6.84632 5.34134 6.8505 5.34618 6.85217 5.3484L6.83788 5.33541ZM6.28028 3.53845C7.42009 3.26319 8.72195 4.03529 8.72195 5.3499C8.72195 7.52993 8.76111 8.81913 8.89013 9.63401C9.01251 10.4069 9.18723 10.568 9.33164 10.6728C9.49161 10.7889 9.67819 10.8728 10.5443 10.8721C10.8763 10.8719 11.2701 10.8607 11.7674 10.8465C11.9147 10.8423 12.0711 10.8379 12.2377 10.8334C12.9577 10.814 13.8417 10.7945 14.9374 10.7945C16.0336 10.7945 17.1248 11.7054 16.9252 12.9698C16.2889 17.0058 12.7591 20 8.5143 20C3.81176 20 0 16.2669 0 11.662C0 7.87428 2.90297 4.35329 6.28028 3.53845Z" fill="#6F767E"/>
<path fill-rule="evenodd" clip-rule="evenodd" d="M17.5147 2.81228C19.0095 4.37309 20.0302 6.40872 19.9993 8.12097L19.0646 8.10479L19.9994 8.11906C19.9993 8.11969 19.9993 8.12033 19.9993 8.12097C19.9866 8.86096 19.4371 9.51632 18.6573 9.63178C16.2503 9.98852 13.0277 9.87394 11.6158 9.79481C10.7153 9.74389 10.0017 9.04445 9.9496 8.16283C9.86878 6.81699 9.72122 3.812 9.83091 1.47313C9.86672 0.701976 10.5001 0.0164574 11.3576 0.0011352M17.5147 2.81228C16.0013 1.23205 13.8289 -0.0434679 11.3576 0.0011352L17.5147 2.81228ZM16.1509 4.0651C14.9408 2.80154 13.3587 1.90378 11.687 1.83546C11.6071 3.9824 11.7333 6.65246 11.8111 7.97141C13.1994 8.04641 15.9977 8.13303 18.1234 7.85645C18.0484 6.79677 17.3597 5.32722 16.1509 4.0651ZM11.6988 1.5561C11.6987 1.55645 11.6987 1.5568 11.6987 1.55716L11.6988 1.5561Z" fill="#6F767E"/>
</svg>
