<svg width="18" height="20" viewBox="0 0 18 20" fill="none" xmlns="http://www.w3.org/2000/svg">
<path fill-rule="evenodd" clip-rule="evenodd" d="M10.8448 0.468291C10.8456 0.468805 10.8465 0.469321 10.8474 0.469836L15.7316 3.36089C15.7517 3.37282 15.7715 3.38545 15.7907 3.39876L15.8209 3.41959C16.2396 3.70893 16.5998 3.95782 16.8799 4.18501C17.1739 4.42344 17.4491 4.6915 17.6486 5.04474C17.8529 5.40666 17.9322 5.77658 17.9676 6.1452C18.0001 6.48274 18 6.88415 18 7.32873V12.6713C18 13.1158 18.0001 13.5173 17.9676 13.8548C17.9322 14.2234 17.8529 14.5933 17.6486 14.9553C17.4491 15.3085 17.1739 15.5766 16.8799 15.815C16.5998 16.0422 16.2396 16.2911 15.8209 16.5804L15.7907 16.6012C15.7715 16.6146 15.7517 16.6272 15.7316 16.6391L10.8474 19.5302C10.8465 19.5307 10.8455 19.5313 10.8446 19.5318C10.2882 19.8644 9.6177 20 9.00333 20C8.38739 20 7.71611 19.8638 7.15729 19.5329C7.15726 19.5329 7.15732 19.533 7.15729 19.5329L2.2684 16.6391C2.24826 16.6272 2.22853 16.6146 2.20927 16.6012L2.17907 16.5804C1.7604 16.2911 1.40007 16.0421 1.11982 15.8146C0.825531 15.5758 0.550206 15.3072 0.35083 14.953C0.146749 14.5906 0.0676414 14.2199 0.0323185 13.8505C-5.96158e-05 13.5119 -3.2317e-05 13.109 -1.91859e-06 12.6621V7.3287C-3.27938e-05 6.88413 -6.05695e-05 6.48274 0.0323585 6.1452C0.0677633 5.77658 0.147086 5.40666 0.351436 5.04474C0.550879 4.6915 0.826107 4.42344 1.12009 4.18501C1.40021 3.95781 1.76041 3.70892 2.17915 3.41957L2.20927 3.39876C2.22853 3.38545 2.24826 3.37282 2.2684 3.36089L7.15721 0.467109C7.15718 0.467126 7.15724 0.467092 7.15721 0.467109C7.71602 0.136285 8.38739 0 9.00333 0C9.61776 0 10.2883 0.135613 10.8448 0.468291ZM9.00333 2C8.65264 2 8.35507 2.08215 8.17613 2.1881L3.31739 5.06408C2.87648 5.36881 2.58857 5.56911 2.37991 5.73834C2.17389 5.90543 2.11579 5.98772 2.09301 6.02806C2.07514 6.05972 2.04335 6.12661 2.0232 6.33641C2.00106 6.56686 2 6.87106 2 7.37007V12.6208C2 13.122 2.00105 13.4282 2.02324 13.6602C2.04347 13.8718 2.07547 13.9397 2.09361 13.9719C2.11646 14.0125 2.17447 14.0948 2.38018 14.2617C2.58869 14.431 2.87644 14.6312 3.3174 14.9359L8.17604 17.8118C8.35498 17.9178 8.65264 18 9.00333 18C9.35462 18 9.64742 17.9176 9.81929 17.8146L9.82396 17.8118L14.6826 14.9359C15.1235 14.6312 15.4114 14.4309 15.6201 14.2617C15.8261 14.0946 15.8842 14.0123 15.907 13.9719C15.9249 13.9403 15.9567 13.8734 15.9768 13.6636C15.9989 13.4331 16 13.1289 16 12.6299V7.37007C16 6.87106 15.9989 6.56686 15.9768 6.33641C15.9567 6.12661 15.9249 6.05972 15.907 6.02806C15.8842 5.98772 15.8261 5.90543 15.6201 5.73834C15.4114 5.5691 15.1235 5.36881 14.6826 5.06408L9.81929 2.18538C9.64741 2.08238 9.35462 2 9.00333 2ZM9 8C7.89543 8 7 8.89543 7 10C7 11.1046 7.89543 12 9 12C10.1046 12 11 11.1046 11 10C11 8.89543 10.1046 8 9 8ZM5 10C5 7.79086 6.79086 6 9 6C11.2091 6 13 7.79086 13 10C13 12.2091 11.2091 14 9 14C6.79086 14 5 12.2091 5 10Z" fill="#6F767E"/>
</svg>
